<?xml version="1.0" standalone="no"?>
<!DOCTYPE svg PUBLIC "-//W3C//DTD SVG 20010904//EN"
 "http://www.w3.org/TR/2001/REC-SVG-20010904/DTD/svg10.dtd">
<svg version="1.0" xmlns="http://www.w3.org/2000/svg"
 width="260.000000pt" height="260.000000pt" viewBox="0 0 260.000000 260.000000"
 preserveAspectRatio="xMidYMid meet">
<metadata>
Created by potrace 1.14, written by Peter Selinger 2001-2017
</metadata>
<g transform="translate(0.000000,260.000000) scale(0.100000,-0.100000)"
fill="#000000" stroke="none">
<path d="M845 2561 c-82 -12 -124 -24 -166 -47 -55 -30 -55 -30 -95 -13 -64
29 -81 25 -95 -21 -9 -30 -22 -46 -49 -61 -46 -26 -74 -71 -67 -108 5 -23 -1
-31 -48 -64 -53 -37 -115 -116 -115 -147 0 -9 -18 -43 -40 -76 l-39 -59 20
-65 c18 -55 19 -72 10 -113 -6 -27 -11 -72 -11 -101 0 -51 1 -52 73 -123 39
-39 107 -97 151 -128 l79 -58 101 7 c63 4 141 17 206 36 58 16 105 28 106 27
1 -1 9 -17 19 -36 16 -33 18 -33 71 -29 49 4 57 2 74 -19 18 -23 18 -25 -3
-87 l-21 -64 53 -60 c47 -55 55 -72 85 -176 l33 -116 -22 -33 c-12 -17 -29
-63 -38 -102 l-16 -69 50 -82 c45 -74 51 -91 64 -179 12 -88 18 -103 59 -166
34 -51 46 -78 46 -106 0 -32 6 -43 36 -66 l35 -29 106 22 c114 23 137 36 256
149 46 44 47 46 47 107 l0 61 50 31 49 31 -6 53 c-12 94 -14 89 74 148 51 34
87 67 96 87 20 40 14 118 -20 243 l-25 95 38 63 c27 47 57 79 113 122 42 31
104 86 138 122 62 65 87 120 108 232 9 43 11 43 -105 16 -47 -11 -91 -20 -98
-20 -7 0 -20 16 -29 35 -11 22 -40 50 -84 79 -63 42 -68 48 -74 91 -6 35 -13
49 -36 62 -26 15 -29 23 -29 65 0 41 -15 77 -95 238 -52 105 -96 190 -98 190
-1 0 -17 -4 -35 -9 -48 -14 -146 5 -218 42 l-62 31 -36 -27 c-20 -15 -39 -39
-42 -53 -8 -31 -13 -30 -176 49 -72 34 -128 67 -128 75 0 7 5 22 10 32 8 15 5
28 -12 55 -21 32 -27 35 -68 34 -25 -1 -94 -9 -155 -18z"/>
<path d="M2304 798 c-24 -33 -56 -62 -84 -76 -57 -28 -75 -61 -60 -106 9 -27
7 -41 -9 -80 -15 -34 -19 -58 -14 -92 5 -39 11 -48 46 -68 36 -22 43 -23 76
-12 36 12 36 12 95 189 l60 176 -25 57 c-13 32 -29 59 -35 61 -6 2 -28 -20
-50 -49z"/>
</g>
</svg>
