<svg xmlns="http://www.w3.org/2000/svg" xmlns:xlink="http://www.w3.org/1999/xlink" style="isolation: isolate;" width="300" height="356.8" viewBox="0 0 300 356.8">
    <defs>
        <clipPath id="_clipPath_ufUKWNh03Q0ow8cg9bS2G9dNbT4C2wP3"><rect width="300" height="356.8" /></clipPath>
    </defs>
    <g clip-path="url(#_clipPath_ufUKWNh03Q0ow8cg9bS2G9dNbT4C2wP3)">
        <path
            fill="none"
            fill-rule="evenodd"
            stroke="#fffff"
            stroke-linecap="square"
            stroke-linejoin="miter"
            stroke-miterlimit="3"
            stroke-width="1"
			d="M 294.4 256 C 294.4 254.7 294.1 252.6 293.7 251.5 C 292.9 248.9 290.7 244.2 290.3 244.1 C 290.2 244.1 289.6 244.6 289.2 245.3 C 288.8 246.1 288.4 247.5 288.3 248.5 C 288.2 250.9 287.8 251.2 286.4 250.4 C 285.5 249.9 285.3 249.9 285.3 250.5 C 285.3 250.9 285.7 251.4 286.1 251.6 C 286.5 251.7 286.2 251.7 285.6 251.6 C 284.3 251.3 284.1 251.6 284.3 253.8 C 284.3 254.3 284.2 254.9 283.8 255.1 C 283.5 255.2 283.3 255.9 283.3 256.6 C 283.3 257.4 283 257.5 282.5 257.4 C 282 257.1 281.7 257.4 281.7 257.9 C 281.7 259 277.7 261.9 274.5 262.9 C 273.3 263.3 271.9 263.8 271.7 264.1 C 271.3 264.4 270.6 264.5 269.8 264.5 C 268.7 264.5 268.5 264.8 268.5 266 C 268.5 266.9 268 268.3 267.4 269.2 C 266.3 271 266.3 272.3 267.4 278.9 C 268.1 282.7 268.1 282.8 266.5 286.1 C 265.6 287.9 264.6 289.5 264.3 289.7 C 262.3 291.2 261.6 296.3 263 299 C 263.4 299.9 263.7 301.6 263.5 303 S 263.5 305.7 263.9 305.8 C 264.3 306.1 264.6 306.6 264.6 307.3 C 264.6 308.5 266.4 310.3 267.6 310.3 C 268.1 310.3 268.5 310.6 268.5 310.8 C 268.5 311.6 271.5 311.5 272.7 310.5 C 273.4 310.1 274.6 309.7 275.4 309.7 C 277.2 309.7 279.3 307.4 279.3 305.8 C 279.3 305.3 279.7 304.3 280.1 303.8 C 280.5 303.1 281.2 301.2 281.6 299.5 C 282 297.7 282.8 295.5 283.4 294.2 C 283.9 293.1 284.7 290.8 285.2 289.3 S 286.8 284 288 280.9 C 289.2 277.9 290.3 274.4 290.6 273.2 C 291.3 269 291.4 268.5 292.2 268.6 C 292.9 268.7 293 268.2 292.2 263.9 L 291.8 261.3 L 292.9 262.6 L 294 264.1 L 294.9 262.2 C 295.6 260.9 295.7 260 295.3 259.2 C 294.6 259 294.4 257.4 294.4 256 Z M 299.5 132.4 C 299 132.3 298.7 129.2 299.1 127.1 C 299.4 125.5 296.9 124.8 295.7 126.2 C 294.5 127.4 289.5 129.2 288.3 128.8 C 287.9 128.7 286.8 128.8 286 129.2 C 285.2 129.6 284.1 129.7 283.3 129.6 C 282.5 129.3 281.4 129.7 280.5 130.4 C 279.4 131.2 278.3 131.5 277 131.3 C 275.8 131.2 274.4 131.3 273.4 132.1 C 270.4 134 268.3 133.2 266 129.5 C 265.5 128.7 264.4 127.7 263.6 127.6 L 262.3 127.2 L 263.6 126.5 C 265.8 125.4 265.5 123.8 262.8 120.8 C 261.5 119.3 260 117.7 259.4 117 C 259 116.3 258.3 115.8 257.9 115.8 C 257.6 115.8 256.8 115 256.4 114 C 255.9 113.1 254.9 112.1 254.4 111.8 C 253.9 111.5 253.1 111 252.6 110.7 C 252.2 110.3 251.5 110.2 251.1 110.3 C 250.6 110.4 250.3 110 250 109.2 C 249.7 108.1 250 107.7 250.5 107.7 C 251.2 107.7 251.2 107.6 250.5 106.9 C 249.4 105.8 249.2 105.8 248.7 107.3 C 248.3 108.6 248.3 108.6 247.5 107.4 C 247 106.7 246.4 105.2 246 104 C 244.4 97.4 243.6 95.8 240.7 93.6 C 237.5 91 236.7 89.3 236.5 83.7 C 236.4 81.5 236 79.4 235.7 78.8 C 235.3 78.3 234.9 77.3 234.9 76.5 C 234.9 75.7 234.8 75 234.5 75 C 234.4 75 233.2 74.1 231.8 72.8 C 229.1 70.4 227.5 66.5 229.2 66.5 C 229.9 66.5 229.6 66.1 228.5 65.2 C 227.7 64.4 226.3 62.4 225.4 60.5 C 224.5 58.6 223.1 56.2 222.4 55 C 221.7 53.8 221.2 52.6 221.2 52.2 C 221.2 51.8 220.8 50.9 220.3 50 C 219.8 49.2 219.2 48.1 219.2 47.6 C 219.1 46.9 218.1 45.4 217 44.2 C 215.9 43 215 41.2 215 40.6 C 215 39.8 214.7 39.1 214.5 39 C 214.1 38.9 213.7 36.8 213.6 34.7 C 213.5 32.5 212.9 30.2 212.5 29.7 C 211 27.7 204.3 28.4 201.7 30.8 C 201 31.5 200.1 31.7 199.4 31.6 C 198.7 31.5 197.1 31.1 195.6 30.8 C 194.1 30.4 192.5 30 191.8 29.7 C 189.8 28.8 185.9 28.1 184.5 28.4 C 183.4 28.7 183 28.4 182.6 27.5 C 182.2 26.6 181.8 26.3 180.4 26.3 C 177.3 26.3 174.5 25.2 174.1 24 C 174 23.3 173.3 22.9 172.6 22.9 S 171.3 22.6 171.1 22.4 C 170.3 21.1 164.8 22.3 162.2 24.4 C 160.4 25.9 159.9 28.6 161 30.3 C 161.9 31.8 159.7 34.9 157.6 34.9 C 157.2 34.9 155.7 34.1 154.5 33.3 C 152.2 31.5 148.6 30.3 146.3 30.3 C 144.3 30.3 142.5 28.8 142.1 26.8 C 141.8 25.7 141.2 24.9 140.2 24.5 C 139.4 24.1 137.9 23.6 137 23 C 135.9 22.5 134 22.2 132.3 22.2 C 130.4 22.2 128.5 21.8 127 21.1 C 124.7 20 123.2 18.1 123.9 17.5 C 124 17.4 123.9 17.1 123.4 17.1 S 122.5 17.4 122.5 17.6 C 122.5 18.5 120.9 18.3 120.2 17.1 C 119.8 16.2 119.9 15.8 121.3 14.5 C 122.2 13.7 123.5 13.2 123.9 13.4 S 124.7 13.4 124.7 13 C 124.7 12.6 124.4 12.6 124.2 12.7 C 123.8 13 123.8 12.3 123.9 10.8 C 124.2 8.9 124 8.4 123.1 7.8 C 121.6 7 121.6 5.8 122.8 4.4 C 123.2 3.9 123.6 3.2 123.3 2.6 C 123.2 2.2 123.3 1.9 123.6 2.2 C 124 2.3 124.1 2.3 124.1 2.1 C 124.1 1 123.3 0.9 122.2 1.8 C 121.1 2.7 121.1 2.7 120.9 1.5 C 120.6 0.6 119.3 -0.4 117.8 -0.4 C 117.7 -0.4 116.6 0.1 115.4 0.7 C 113.5 1.8 110.5 1.9 109.2 1 C 108.8 0.7 108.4 1 108.1 1.3 C 107.8 1.8 107.3 1.8 106.1 1.3 S 104.5 0.8 104.2 1.3 C 104.3 1.4 103.8 1.7 103.3 1.7 C 102.8 1.7 102 2.1 101.7 2.4 C 101.2 2.9 100.8 2.9 99.8 2.4 C 98.3 1.5 96.7 1.6 88.9 2.8 C 82.4 3.9 78.6 5.2 78.6 6.4 C 78.6 6.7 78.2 6.8 77.8 6.7 C 77.4 6.4 76.9 6.6 76.7 6.8 C 76.4 7.2 75.9 7.3 75.5 7.3 S 74 8.4 73.2 9.2 C 72.4 10 71.4 10.7 71 10.7 C 69.5 10.8 67.5 10.6 67 10.2 C 66.7 9.9 65.1 9.9 63.2 10.2 C 59.6 10.7 57.5 9.8 57 7.8 C 56.6 6.7 55.9 6.5 54.7 7.1 C 54.3 7.4 53.5 9 52.7 10.6 C 50.8 15.2 49.5 16.8 46 18.4 C 42.5 20 39 23.1 39 24.4 C 39 24.9 38.5 26.2 37.8 27.1 C 36.7 28.4 36.5 29.7 36.5 32.5 C 36.5 34.7 36.2 36.4 35.8 36.8 C 35.4 37.2 35 37.9 35 38.1 S 34.1 39.4 33 40.4 C 31.9 41.3 30.4 42.6 29.8 43.1 C 28.5 44.3 25.2 45.8 23.9 45.8 C 22.7 45.8 21.9 46.7 20.4 50 C 19.6 51.5 18.9 52.7 18.6 52.7 C 17.1 52.7 13.9 57.4 13.9 59.7 C 13.9 61 12.4 63.3 10.1 65.5 C 9.4 66.2 8.2 68.2 7.5 70.1 S 5.7 74 5.1 74.4 C 4.6 74.8 4 76 3.8 77.2 C 3.7 78.4 3.3 80 3.1 80.7 C 2.8 81.6 3 81.9 3.5 81.8 C 3.9 81.7 4.8 82.2 5.5 82.9 C 6.8 84.4 7.3 85.9 6.3 85.9 C 5.4 85.9 5.1 88.7 5.9 90.1 C 7.1 91.9 7 96.7 5.6 100.2 C 4.9 101.8 4.5 103.7 4.5 104.7 C 4.5 106.5 1.7 111.2 0.7 111.2 C 0.3 111.2 -0.1 111.5 -0.1 111.7 C -0.1 112 0.3 112.2 0.7 112.2 C 1.2 112.2 1.8 112.9 2.2 113.7 C 2.6 114.6 3 115.7 3.3 116.3 C 3.6 116.8 3.6 117.4 3.3 117.6 C 2.9 117.7 2.8 119.1 2.8 120.6 C 2.8 122.9 3.2 123.6 4.6 124.9 C 6.5 126.8 6.9 127.7 5.4 127.2 C 4.6 126.9 4.6 127.1 4.9 128.3 C 5.6 130.3 6 130.6 7.2 129.5 C 8 128.8 8.1 128.6 7.6 128.4 C 6.8 128.1 6.5 126.5 7.3 126.5 C 7.6 126.5 8.1 127.3 8.4 128.3 C 8.7 129.2 9.2 130.1 9.5 130.1 C 9.9 130.1 10.2 130.5 10.2 130.9 C 10.2 131.3 10.6 131.7 11 131.7 C 11.4 131.7 11.8 131.8 11.8 132.1 S 13.1 133.9 14.6 135.6 C 16.5 137.6 17.4 139.2 17.6 140.2 C 17.6 142.6 18 143.8 18.7 144.2 C 19.1 144.5 19.1 145 19 145.3 C 18.7 145.7 18.9 146 19.1 146 S 19.5 146.4 19.5 146.7 C 19.4 147.1 20.2 147.8 21.7 148.5 C 24.1 149.4 26.2 151.1 33 157.3 S 41.6 164 46.9 161.5 C 52.4 158.8 61.1 158.7 65.8 161 C 66.5 161.3 67.4 161.1 68.4 160.6 C 73.7 157.9 77.6 156.3 78.8 156.3 C 79.5 156.3 80.3 155.9 80.4 155.5 C 80.8 154.4 85.4 153.5 90.8 153.3 C 94.2 153.2 95.1 153.3 96.1 154.2 C 97.6 155.5 99.5 159.2 99.5 160.4 C 99.5 160.8 100 161.9 100.8 162.4 C 101.7 163.3 102.6 163.5 104 163.2 C 105.1 163.1 107 162.8 108.3 162.7 C 109.5 162.6 111.4 162.3 112.5 162.3 C 114 162 114.4 162.3 114.7 163.4 C 114.8 164.1 115.5 164.9 116.2 165 C 116.9 165.1 117.3 165.7 117.3 166.1 S 117.7 167.2 118.1 167.6 C 119.2 168.5 118.6 174.1 117.3 176.9 C 116.5 178.4 116.5 179.1 116.9 179.2 C 117.3 179.3 117.4 179.9 117 180.5 C 116.7 181 116.5 182.8 116.3 184.1 C 116 186.5 115.2 187.7 114.3 187.2 C 113.5 186.8 113.8 188.3 114.7 190.2 C 115.1 191.1 115.9 192.9 116.6 194.1 C 117.1 195.3 118.6 197.3 119.7 198.4 C 123.7 202.3 128.9 209.9 128.9 212 C 128.9 212.7 129.2 213.3 129.4 213.5 C 129.8 213.8 129.8 214 129.7 214.3 C 129.6 214.6 130 216.2 130.8 217.8 C 131.6 219.4 132.7 222.3 133.2 223.9 C 134.3 226.9 134.3 227 133.2 227.7 C 132.1 228.5 132.1 228.6 134 233.2 C 135.2 236.4 135.9 238.9 135.8 240.5 C 135.7 243.5 134.7 246.2 133.8 246.2 C 132.7 246.2 130 251.1 129.6 253.8 C 129.2 257.2 127.7 262.3 127.2 262.3 C 126.4 262.3 126.8 272.8 127.6 274.7 C 128 275.8 128.5 276.6 128.7 276.6 C 129.2 276.6 131.7 281.7 134.2 287.8 C 134.7 289 135.8 291.2 136.6 292.7 C 137.8 294.7 138.1 296.1 138.2 299.3 C 138.2 301.5 138.6 304.6 138.9 306.2 C 139.3 307.7 140 311.3 140.4 314.2 C 141.5 320.1 142.3 321.9 145.3 325.1 C 146.6 326.6 147.9 328.9 148.7 331.4 C 150 335.6 151.9 339.8 152.7 340.3 C 153 340.4 153.4 341.8 153.5 343.3 C 153.9 345.6 153.8 346 153 346 C 152.6 346 152.1 346.4 151.9 346.7 C 151.6 347.5 152.6 349.4 153.4 350.1 C 153.7 350.4 153.8 351.2 153.7 352 C 153.3 353.9 154.1 355.4 154.9 354.2 C 155.3 353.7 155.4 353.5 155.4 354.1 C 155.4 354.5 155.8 354.9 156.2 354.9 S 157.4 355.4 158.1 356 C 159.3 357.5 160.5 357.5 161.9 356.1 C 162.6 355.4 163.8 355.2 165.3 355.2 C 166.6 355.2 168.3 354.9 169.1 354.4 C 170.7 353.3 174.9 353.1 178 353.7 C 179.5 354.1 180.4 354.1 181 353.6 C 181.4 353.2 182.3 353.1 183.2 353.2 S 184.4 353.1 184.4 352.8 C 184.4 352.4 185.3 352 186.7 351.9 C 189.7 351.5 195.5 347.7 198.7 344.1 C 199.4 343.3 200.9 341.8 202.1 340.7 C 204.3 338.7 208.2 333 208.2 332.1 C 208.2 331.3 212 327.5 212.8 327.5 C 213.5 327.5 214.4 325.3 215.9 320.9 C 217 317.7 217.1 313.5 216.3 314 C 215.2 314.7 215.8 313.2 217.1 311.7 C 217.8 310.9 220.2 309.5 222.4 308.6 C 225.4 307.5 226.7 306.4 227.7 305.1 C 228.5 303.9 228.8 302.9 228.5 302.7 C 228.1 302.3 228.1 301.6 228.5 300.7 C 229.3 298.8 229.2 294.4 228.4 293.5 C 228 293.1 227.9 292.7 227.9 292.4 C 227.9 292 228.2 292.1 228.4 292.7 C 228.8 293.4 228.9 293.4 228.9 292.3 C 228.9 291.6 228.6 291.1 228.2 291.2 C 227.8 291.3 227.5 290.5 227.4 289.3 C 227.4 288.2 227 287.3 226.6 287.1 S 225.9 286.3 225.9 285.6 C 225.9 284.1 231 278.4 232.4 278.4 C 232.9 278.4 233.3 278.1 233.3 278 C 233.3 277.7 233.7 276.9 234.4 276.1 C 236.4 273.3 238.6 271.6 241.8 270.3 C 243.7 269.6 245.2 268.8 245.4 268.7 C 245.5 268.4 246.1 268 246.6 267.8 C 248.1 267 251.9 261.7 252.7 259.4 C 253.2 257.8 253.2 256.7 252.8 254.8 C 252.4 253.5 252.1 249.1 252.3 244.9 C 252.4 235.3 252.6 235.7 251 235 C 249.9 234.5 249.4 233.5 248.7 230.4 C 247.5 225.4 247.5 224.7 248.8 224.3 C 249.5 224.2 249.9 223.6 249.9 223.4 C 249.9 223 249.5 222.9 249.1 223 C 248 223.4 247.2 221.8 248 220.6 C 248.4 219.8 248.3 219.1 246.9 217.6 C 246 216.5 245.3 215.3 245.3 214.8 C 245.3 213.6 247.2 208.3 247.7 207.9 C 248.2 207.5 250.9 201.4 251.3 199.5 C 251.4 198.8 252.1 198 252.8 197.6 C 254.6 196.7 257.5 193.4 258.7 191.3 C 261.1 186.4 268.8 178.1 273.5 175.1 C 276.6 173.2 285.6 163.2 285.8 161.7 C 285.8 161.4 286.7 159.8 287.8 158.1 C 288.9 156.3 289.8 154.6 289.8 153.9 C 289.8 152.8 293.3 145.3 294 145 C 294.3 144.9 294.4 144.6 294.4 144.2 C 294.4 143.9 295.1 142.3 295.9 140.8 S 297.4 137 297.4 135.9 C 297.4 134.4 297.7 133.9 298.5 133.6 C 300 133.5 300.4 132.8 299.5 132.4 Z"
			vector-effect="non-scaling-stroke"
        />
    </g>
</svg>
